<?xml version="1.0" encoding="utf-8"?>
<!-- Generator: Adobe Illustrator 27.0.1, SVG Export Plug-In . SVG Version: 6.00 Build 0)  -->
<svg version="1.1" id="Layer_1" xmlns="http://www.w3.org/2000/svg" xmlns:xlink="http://www.w3.org/1999/xlink" x="0px" y="0px"
	 width="32px" height="32px" viewBox="0 0 32 32" style="enable-background:new 0 0 32 32;" xml:space="preserve">
<style type="text/css">
	.st0{fill:#F6FFC2;}
	.st1{fill:#007EA7;}
</style>
<path class="st0" d="M-12.3,31.9h-21.2c-3,0-5.4-2.4-5.4-5.4V5.3c0-3,2.4-5.4,5.4-5.4h21.1c3,0,5.4,2.4,5.4,5.4v21.1
	C-6.9,29.5-9.3,31.9-12.3,31.9z"/>
<path class="st1" d="M21,2c-0.2,0-0.3,0-0.4,0C16.3,2,12,2,7.7,2C6.7,2,6,2.5,5.8,3.4c0,0.2,0,0.4,0,0.6c0,8,0,16,0,24
	c0,1.3,0.8,2.1,2,2.1c5.5,0,11.1,0,16.5,0c1.2,0,2-0.8,2-2.1c0-5.8,0-11.6,0-17.3c0-0.2,0-0.4,0-0.6c0.1-0.4,0.4-0.6,0.8-0.6
	c0.4,0,0.7,0.3,0.8,0.7c0,0.1,0,0.3,0,0.4c0,5.8,0,11.6,0,17.3c0,1.9-1,3.2-2.7,3.6c-0.3,0.1-0.6,0.1-1,0.1c-5.4,0-11,0-16.4,0
	c-1.8,0-3.1-1.1-3.5-2.8c-0.1-0.3-0.1-0.6-0.1-1c0-7.9,0-15.9,0-23.9c0-1.9,0.9-3,2.5-3.4C7,0.4,7.5,0.3,7.8,0.3c4.6,0,9.2,0,13.8,0
	c3.1,0,5.4,2,6.1,4.9c0.1,0.4,0.1,0.9,0.1,1.3c0,0.6-0.3,0.9-0.8,0.9c-1,0-1.8,0-2.8,0c-1.9-0.1-3.2-1.6-3.2-3.6C21,3.2,21,2.6,21,2
	z M22.6,2.1c0,0.7,0,1.4,0,2.1c0.1,0.8,0.7,1.5,1.4,1.6c0.7,0.1,1.4,0,2.1,0C26,4.1,24.4,2.4,22.6,2.1z"/>
<path class="st1" d="M13.7,8.2c0.6,0,1.1,0.4,1.1,1s-0.4,1-1,1.2c-0.7,0.1-1,0.4-1,1.2c0,1.3,0,2.7,0,4c0,0.5-0.2,1.2-0.4,1.7
	c0,0.1,0,0.4,0,0.5c0.1,0.5,0.4,1.2,0.4,1.7c0.1,1.3,0,2.6,0,4c0,0.8,0.4,1.2,1,1.2c0.6,0.1,1,0.5,1,1.2s-0.5,1-1.1,1
	c-1.4,0-2.7-1.3-2.9-2.9c0-1.4,0-2.8,0-4.2c0-0.8-0.1-0.9-0.8-1c-0.5-0.1-0.8-0.5-0.8-1s0.4-0.9,0.8-1c0.6-0.1,0.8-0.3,0.8-1
	c0-1.4,0-2.8,0-4.2C10.8,9.5,12.1,8.2,13.7,8.2z"/>
<path class="st1" d="M21.2,13.3c0,0.8,0,1.4,0,2.2c0,0.6,0.2,0.8,0.7,0.9c0.6,0.1,1,0.5,1,1c0,0.5-0.4,1-1,1
	c-0.5,0.1-0.7,0.3-0.7,0.9c0,1.4,0,2.8,0,4.3c0,1.7-1.3,2.9-2.9,2.9c-0.6,0-1.1-0.4-1.1-1s0.4-1,1-1.2c0.7-0.1,1-0.4,1-1.2
	c0-1.3,0-2.6,0-4c0-0.6,0.1-1.2,0.5-1.7c0.1-0.1,0.1-0.4,0-0.5c-0.2-0.5-0.5-1.2-0.5-1.7c0-1.3,0-2.6,0-3.8c0-0.8-0.2-1.2-1.1-1.3
	c-0.6-0.1-1-0.5-1-1.2s0.5-1,1.1-0.9c1.4,0,2.7,1.3,2.9,2.9C21.2,11.8,21.2,12.6,21.2,13.3L21.2,13.3z"/>
</svg>
