<?xml version="1.0" encoding="utf-8"?>
<!-- Generator: Adobe Illustrator 27.0.1, SVG Export Plug-In . SVG Version: 6.00 Build 0)  -->
<svg version="1.1" id="Layer_1" xmlns="http://www.w3.org/2000/svg" xmlns:xlink="http://www.w3.org/1999/xlink" x="0px" y="0px"
	 width="863.2px" height="595.3px" viewBox="0 0 863.2 595.3" style="enable-background:new 0 0 863.2 595.3;" xml:space="preserve"
	>
<style type="text/css">
	.st0{fill:#003249;}
	.st1{fill:url(#SVGID_1_);}
	.st2{fill:url(#SVGID_00000106129559196275602900000005672521874186241692_);}
	.st3{fill:url(#SVGID_00000123400482093656218640000009059251480333449365_);}
	.st4{fill:url(#SVGID_00000108298481163382821440000006579725673559147395_);}
	.st5{fill:#E7C796;}
	.st6{fill:url(#SVGID_00000111156492083220030490000017672309908908906881_);}
	.st7{fill:url(#SVGID_00000172408508727705880880000003111451003500197002_);}
	.st8{fill:url(#SVGID_00000036970046488625232600000003013791275448444827_);}
	.st9{fill:#AE825D;}
	.st10{fill:#262626;}
	.st11{fill:url(#SVGID_00000026146234548658216030000010734154397486906542_);}
	.st12{fill:url(#SVGID_00000101799236169651365750000009571530658881123255_);}
	.st13{fill:url(#SVGID_00000030479570191574791630000001499352784688840602_);}
	.st14{fill:url(#SVGID_00000050630396992884399670000004960747447527941805_);}
	.st15{fill:url(#SVGID_00000112621239167303358710000013602339063897346210_);}
	.st16{fill:url(#SVGID_00000062179540298216726090000016724187450476391072_);}
	.st17{fill:url(#SVGID_00000087407073531567681320000016637027736117756803_);}
	.st18{fill:none;}
	.st19{fill:#D0AF82;}
	.st20{fill:url(#SVGID_00000024686205232804131090000005838456983715606418_);}
	.st21{fill:url(#SVGID_00000015339102868963332570000013816179279146353297_);}
	.st22{fill:url(#SVGID_00000138541556369791712450000004651426848525582527_);}
	.st23{fill:url(#SVGID_00000116928638946631471620000000200127630397371056_);}
	.st24{fill:#44333D;}
	.st25{fill:#E2B5B5;}
	.st26{fill:#FFFFFF;}
	.st27{fill:url(#SVGID_00000133519252238614044310000018333203792379929003_);}
	.st28{fill:url(#SVGID_00000145039172721878715550000010599659152028339610_);}
	.st29{fill:#3587AA;}
	.st30{fill:#222222;}
	.st31{opacity:0.75;}
	.st32{fill:#997758;}
	.st33{fill:#5E472B;}
</style>
<path class="st0" d="M-1.6,607.1c0,0,20-49.8,39.5-63.8s16.3-10,18.5-19s10.9-11,18.5-11s29.4-10,29.4-10s32.6-14,41.3-17
	c8.7-3,45.7-14,51.1-14c5.4,0,10.9-9,16.3-11s22.8-4,33.7,0s31.6,14,34.8,23c3.3,9,7.6,15,16.3,17c8.7,2,243.7,8,252.4,3
	c8.7-5,25-12,38.1-18s55.5-13,64.2-9s29.4,1,38.1,7c8.7,6,31.6,22,52.2,27s35.9,12,47.9,17s29.4,18,34.8,29c5.4,11,45.7,38,45.7,57
	S-1.6,607.1-1.6,607.1L-1.6,607.1z"/>
<linearGradient id="SVGID_1_" gradientUnits="userSpaceOnUse" x1="193.378" y1="876.5753" x2="784.958" y2="698.4052" gradientTransform="matrix(1 0 0 1 0 -482)">
	<stop  offset="0" style="stop-color:#5E472B"/>
	<stop  offset="0.184" style="stop-color:#684E31"/>
	<stop  offset="0.407" style="stop-color:#735636"/>
	<stop  offset="0.651" style="stop-color:#8E7050"/>
	<stop  offset="1" style="stop-color:#5E472B"/>
</linearGradient>
<path class="st1" d="M440,73.8c0,0-54.7-92.3,87.5-64.6c23.6-2.2,67.3-11,149.2,90.9c29.2,34,20.2,80,17.9,89.8
	c0,0,26.9,31.8,29.2,54.8c14.6,4.4,23.6,0,32.5-7.7c-6.7,12-19.1,27.4-34.8,24.1s14.6,20.8,35.9,24.1c-20.2,0-29.2-4.4-29.2-4.4
	s1.1,14.2-1.1,21.9c-0.6,1.9-0.1,3.4,1.1,4.7c3.5,3.7,13.2,4.9,19.1,7.4c-10.1,0-14.6,14.2-21.3,27.4c-6.7,13.1,6.7,29.6-14.6,54.8
	c-5.6,25.2-28,67.9-17.9,92c12.3-3.3,24.7-6.6,30.3-20.8c0,13.1-10.1,17.5-10.1,17.5l20.2-13.1c0,0-10.1,16.4-14.6,17.5
	s21.3-3.3,21.3-3.3l-20.2,8.8l15.7-2.2c0,0,13.5-4.4-11.2,9.9c-24.7,14.2-28,12-28,12s0,8.8-6.7,16.4c-6.7,7.7-28-2.2-25.8,11
	c2.2,13.1-17.9,6.6,6.7,16.4c-5.6,9.9-20.2,11-23.6,7.7c-3.4-3.3-6.7,8.8-7.9,20.8c-1.1,12-14.6-2.2-14.6-2.2s1.1,5.5-7.9,7.7
	s-15.7-6.6-15.7-9.9c0-3.3-3.4-7.7-7.9-11S570.7,509,570.7,509s-188.4-73.8-219.1-59.2S309.7,559.3,306,559.3s-20.9-5.8-27.7-21.9
	c-10.5,1.5-12.7-1.5-12.7-1.5s3.7-5.8,1.5-15.3s-3.7,6.6-8.2,4.4c-4.5-2.2,0-24.1-6.7-35.1s-24.7-4.4-50.8-21.9
	c12.7-0.7,28.4,2.2,33.6-0.7c5.2-2.9,12-13.9,9.7-29.2c-2.2-15.3,0.7-35.8,4.5-56.2c-9-10.2-12.7-21.9-0.7-39.4s39.6-63.5,37.4-91.3
	c-6.7,24.1-20.9,49.7-27.7,56.2c0.7-10.2,20.2-29.2,17.9-70.1c-6.7-12.4-13.5-31.4-12-43.1c-17.9-16.8-26.9-32.1-26.9-40.2
	c6,9.5,18.7,13.9,20.9,13.9c2.2,0-10.5-5.8-10.5-21.2c6,7.3,9,6.6,9,6.6s33.6-21.2,38.1-44.5c-12,18.3-44.1,64.3-45.6,97.1
	c-3-19,3-89.8,56.8-138.7c28.4-30.7,20.7-52.8,88.2-61.3c88.9-11.2,60.6,23.4,68.8,45.3C471.4,73.1,440,73.8,440,73.8L440,73.8z"/>
<linearGradient id="SVGID_00000098217889757085034970000003244850379107250355_" gradientUnits="userSpaceOnUse" x1="280.234" y1="753.9598" x2="647.6558" y2="753.9598" gradientTransform="matrix(1 0 0 1 0 -482)">
	<stop  offset="8.900001e-02" style="stop-color:#E7C597"/>
	<stop  offset="0.285" style="stop-color:#EFCEA1"/>
	<stop  offset="0.569" style="stop-color:#F6D5A9"/>
	<stop  offset="1" style="stop-color:#F8D7AC"/>
</linearGradient>
<path style="fill:url(#SVGID_00000098217889757085034970000003244850379107250355_);" d="M302.5,370.8c0,0-5.7,53,38.7,97.3
	s104.6,24.7,104.6,24.7s55.3-14.7,60-14.7c0,0,32,0.7,56.7-29.3c20-32.7,22.7-45.3,22.7-45.3l4-6l3.3-2l1.9,4.2l1.1,6.5
	c0,0,1,8,9,10.7s13.3,2,13.3-3.3s2.7-31.3,7.3-38.7c4.7-7.3,18.7-30,20-36s6-28-2-31.3s-17.3,0.7-17.3,0.7l-13.3-12.7
	c0,0-2-28.7-1.3-46s1.3-30.7,1.3-30.7s2.7-27.3-2.7-38.7c-5.3-11.3-29.3-78.7-34-84s-34-25.3-36.7-27.3s-50.7-14.7-50.7-14.7
	l-53.2-7.4l-36,20.7l-36.7,37.3l-17.3,30l-17.3,36.7c0,0-7.3,53.3-12.7,68c-5.3,14.7-8,23.3-8.7,40.7c-0.7,17.3-1.3,36-2,39.3
	s-4-31.3-4-31.3s-8,9.3-8.7,22.7c-0.7,13.3-3.3,23.3-6.7,33.3c-3.3,10-8.7,16.7-0.7,24.7S302.5,370.8,302.5,370.8L302.5,370.8z"/>
<radialGradient id="SVGID_00000010304142513941783760000011976556051815469464_" cx="424.2265" cy="950.7548" r="175.55" fx="422.6705" fy="1126.298" gradientTransform="matrix(1 0 0 1 0 -482)" gradientUnits="userSpaceOnUse">
	<stop  offset="0.282" style="stop-color:#F8D7AC"/>
	<stop  offset="0.918" style="stop-color:#D0AF82"/>
</radialGradient>
<path style="fill:url(#SVGID_00000010304142513941783760000011976556051815469464_);" d="M584.3,377c0,0-8.7,32.7-9.3,46.7
	s-8.7,54.7-9.3,59.3s0,22-1.3,33.3c0,0-4,38.7-22.7,65.3c-18.7,26.7-28,37.3-28,37.3l-175.3,4.7c0,0-10.7-38-15.3-47.3
	s-10.7-33.3-8-52.7s1.3-47.3,0.7-51.3s-2.7-29.3,0.7-49.3c3.3-13.3,32.7-16,32.7-16L584.3,377L584.3,377z"/>
<linearGradient id="SVGID_00000000195995163242808950000001220125947504845965_" gradientUnits="userSpaceOnUse" x1="429.4585" y1="1045.1575" x2="387.7305" y2="1042.5614" gradientTransform="matrix(1 0 0 1 0 -482)">
	<stop  offset="0" style="stop-color:#F8D7AC"/>
	<stop  offset="0.396" style="stop-color:#E0C093"/>
	<stop  offset="0.654" style="stop-color:#D0AF82"/>
</linearGradient>
<path style="fill:url(#SVGID_00000000195995163242808950000001220125947504845965_);" d="M427.5,536.2
	c-11.8,7.5-20.8,28.1-21.1,34.2c-0.3,6.1,6.3,15.8,12,18.9c5.6,3.1-2-6.2,0-16.7C420.3,562.1,434.3,531.8,427.5,536.2z"/>
<path class="st5" d="M457.3,211.8c0,0,4.7,17.7,9,23.3c4.3,5.7,9.3,10,10.3,12.3s-10-20.6-11.7-25.6s-3-16.3-5.3-14.3
	S457.3,211.8,457.3,211.8z"/>
<radialGradient id="SVGID_00000066492852085204013290000008672273942456496054_" cx="450.8405" cy="850.4133" r="133.3991" gradientTransform="matrix(1 0 0 1 0 -482)" gradientUnits="userSpaceOnUse">
	<stop  offset="0.282" style="stop-color:#E7C796"/>
	<stop  offset="0.918" style="stop-color:#D0AF82"/>
</radialGradient>
<path style="fill:url(#SVGID_00000066492852085204013290000008672273942456496054_);" d="M300.9,297.1c0,0-3.3,40.4-4,57.5
	s5.3,53.4,22,72.6c15.3,23.3,25.3,30.8,48,40.4s40.7,13.7,78,4.8c37.3-8.9,58-11.6,81-17.6c18.1-5.5,30.2-20.4,38.1-32.2
	c7.9-11.9,10.9-18.7,16.2-35.1s17.2-32.6,19.3-37c11.3-22.9,1.9-6.9-2-21.2l4-33.5c0,0-19.3-11-28,15.1c-8.7,26-16.7,41.1-38.7,51.3
	c-22,10.3-54.7,24.6-71.3,26c-16.7,1.4-92.3,35.8-104.7,33.3c-13.2-2.6-51.6-75.5-51.6-88.5s4.2-43.4,2.9-49.5s-13.3-24-13.3-24
	L300.9,297.1L300.9,297.1z"/>
<linearGradient id="SVGID_00000003800169212286884980000014755270325524073628_" gradientUnits="userSpaceOnUse" x1="496.3613" y1="727.7585" x2="603.8243" y2="743.0375" gradientTransform="matrix(1 0 0 1 0 -482)">
	<stop  offset="0" style="stop-color:#F8D7AC"/>
	<stop  offset="0.267" style="stop-color:#F3D2A6"/>
	<stop  offset="0.616" style="stop-color:#E5C498"/>
	<stop  offset="1" style="stop-color:#D0AF82"/>
</linearGradient>
<path style="fill:url(#SVGID_00000003800169212286884980000014755270325524073628_);" d="M480.1,139.2c0,0,16.9,8.8,40.7,23
	s51.6,42.6,44.7,60.1c-6.9,17.6-15.9,17.3-39.4,38.1c-10.3,1.1-19.7,4.9-26.9,19.6c-6.9,14.2-7.2,57.9-11.2,70.7
	c-4,12.8-20.8,33.1-51.6,49.3s49.6,25,49.6,25l87.4-58.1l46.7-91.2l-3-56.7l-4.8-81.9l-56.7-37l-20.8-29.7L480.1,139.2L480.1,139.2z
	"/>
<linearGradient id="SVGID_00000004548608324979714320000013044058650371916731_" gradientUnits="userSpaceOnUse" x1="365.7815" y1="783.5108" x2="293.7425" y2="821.1749" gradientTransform="matrix(1 0 0 1 0 -482)">
	<stop  offset="0" style="stop-color:#F8D7AC"/>
	<stop  offset="0.605" style="stop-color:#E0C093"/>
	<stop  offset="1" style="stop-color:#D0AF82"/>
</linearGradient>
<path style="fill:url(#SVGID_00000004548608324979714320000013044058650371916731_);" d="M311.9,254.2c-1.1,3.1-7.5,36.1-5.9,44.3
	s8.8,16.1,10.1,26.6c1.3,10.5-1.1,21.2-1.3,27.1s-0.5,20.5,1.1,29.7s2.8,50.7,7.8,61.2c-9.3-13-20.5-33.4-23-46.4
	c-1.6-8.6-4.4-19.4-2.3-39.4s3.1-39.9,2.8-45.5s3.2-44.5,3.7-51.7s6.7-29.2,8-32.7c1.3-3.6,7.2-18.2,8.5-21.7
	c1.3-3.6-1.6,6.9-2.1,11.3S311.9,254.2,311.9,254.2L311.9,254.2z"/>
<path class="st9" d="M405.8,246c0,0-4.2,1-1.9,6.9s4.4,7,4.9,9.1c2.8-3.4,4.6-6.5,4.8-7.4s-3.4-5-3.9-5.5S409.4,245.7,405.8,246z
	 M440.8,254.3c0,0-3,3-2.4,4.7s4.9,4.3,5,5.4s3.9,9.2,6.1,7.2c2.2-2.1,4.8-4.6,6.5-5.5c1.8-0.9,4.2-2.9,4.2-4.6s-1.5-4-2-4.6
	c-0.5-0.5-6.6-3.1-6.6-3.1L440.8,254.3L440.8,254.3z"/>
<path class="st10" d="M409.1,245.6c-1.4,0.1-2.6,0.1-2.5,0.8s-0.2,1.8,2.1,4.1s2.1,3.9,2.5,4.2c1,1.2,1.4,1,3,0.5s3-0.5,3-0.5
	s-0.4-3-2-4.9s-2.8-3.2-3.8-3.8S409.1,245.6,409.1,245.6L409.1,245.6z M446.1,252.4c0,0-5,0-6.5,3.6c-1.4,2.6-1.1,2.9-1.1,2.9
	s3-2.9,4.5-3.1c1.6,0.2,2,1.5,3.5,4.1s2.8,4.1,3.6,4.1s11.6-3.6,8.2-6.9s-6.4-5-8.8-5S446.1,252.4,446.1,252.4L446.1,252.4z"/>
<linearGradient id="SVGID_00000075148124196267220100000003536722676479836805_" gradientUnits="userSpaceOnUse" x1="529.9114" y1="985.5044" x2="574.1224" y2="843.5904" gradientTransform="matrix(1 0 0 1 0 -482)">
	<stop  offset="0" style="stop-color:#F8D7AC"/>
	<stop  offset="0.396" style="stop-color:#E0C093"/>
	<stop  offset="0.654" style="stop-color:#D0AF82"/>
</linearGradient>
<path style="fill:url(#SVGID_00000075148124196267220100000003536722676479836805_);" d="M584.3,377.2c0.2-1.4-3,6.5-5,9.2
	c-9.4,12.7-8.5,53.6-51.3,73.4c-8.2,22.5-7.7,27-10.2,34.8c-2.3,7,17-19.9,24.5-28.8c4.2-5,11.9-11.4,15.4-16.3
	c11.1-15.5,13-32.2,14.7-36.6c2.5-6.3,8.9-23.1,9.6-25.5C583.3,382.8,583.8,380.5,584.3,377.2z"/>
<linearGradient id="SVGID_00000100345942664602307880000002025763847923490181_" gradientUnits="userSpaceOnUse" x1="322.4196" y1="949.2853" x2="349.6675" y2="949.2853" gradientTransform="matrix(1 0 0 1 0 -482)">
	<stop  offset="0.226" style="stop-color:#D6B589"/>
	<stop  offset="0.654" style="stop-color:#D0AF82"/>
</linearGradient>
<path style="fill:url(#SVGID_00000100345942664602307880000002025763847923490181_);" d="M325,432.8c-8.9-10.8,8.8,12.8,8.8,12.8
	l16,59c0,0-3.4-28.7-0.8-47.7C335.5,447.4,334.2,444.1,325,432.8L325,432.8z"/>
<linearGradient id="SVGID_00000176040763175670134070000011937635097408048314_" gradientUnits="userSpaceOnUse" x1="359.6843" y1="915.7566" x2="493.2632" y2="782.1766" gradientTransform="matrix(1 0 0 1 0 -482)">
	<stop  offset="0" style="stop-color:#D4B387"/>
	<stop  offset="8.199999e-02" style="stop-color:#E0BF93"/>
	<stop  offset="0.208" style="stop-color:#EDCDA0"/>
	<stop  offset="0.352" style="stop-color:#F5D5A9"/>
	<stop  offset="0.55" style="stop-color:#F8D7AC"/>
</linearGradient>
<path style="fill:url(#SVGID_00000176040763175670134070000011937635097408048314_);" d="M348.5,410.6c-33.2-19-32.4-52.1-33.7-58.4
	c-1.3-6.3,30.4-13.4,30.4-13.4c14.8-6.9,26.3-17.4,30.9-18.7c5.7-1.6,8.1-6.1,18.1-10.9c8.1-3.8,24-1.4,17.3-6.5
	c-6.7-5-7.4-5-5.4-12.6s10.1-22.1,10.1-22.1s4.7,4.4,10.1,5.7c5.4,1.3,12.8-1.9,12.8-1.9s2,8.8,4,10.7c2,1.9,2.7,15.1,6.7,23.3
	c4,8.2,18.2,27.1,25.5,32.1c7.4,5,20.2,17,24.2,26.5s27,17.9,20.9,33.7c-3.8,9.9-25.9,27.7-36.3,28.8c-6.1,0.7-33,25.5-86.8,21
	c-5.2-0.4-55.2-14.5-42.4-28.3L348.5,410.6L348.5,410.6z"/>
<linearGradient id="SVGID_00000011033743548162240510000013164151964255975347_" gradientUnits="userSpaceOnUse" x1="450.2593" y1="633.7172" x2="482.6414" y2="508.9822" gradientTransform="matrix(1 0 0 1 0 -482)">
	<stop  offset="0.2" style="stop-color:#F8D7AC"/>
	<stop  offset="0.418" style="stop-color:#F3D2A7"/>
	<stop  offset="0.688" style="stop-color:#E6C599"/>
	<stop  offset="0.984" style="stop-color:#D2B184"/>
	<stop  offset="1" style="stop-color:#D0AF83"/>
</linearGradient>
<path style="fill:url(#SVGID_00000011033743548162240510000013164151964255975347_);" d="M575.6,95.5c0-8.7-10-32-10-32l-58.7-26.7
	l-56,0.7c0,0-48,13.3-57.3,22c-0.4,0.3-0.7,0.7-0.9,1.1l-1.8,0.7c0,0-14.8,17.2-15.5,18s-17,25-17.8,25.5s-1.8,8.5-6.2,14
	s-0.2,4.5-4.5,9s-1,2-5,8s-1.5,15.7-2.2,16.7s19.9-16.2,29.7-20.7c9.8-4.5,26.8-0.3,31-1.3c0.1,0,0.1,0,0.2-0.1c1.3,1,3.2,1.6,6,1.7
	c0.9,1.6,1.8,2.7,1.8,2.7c2,0,21.3,10.7,24.7,19.3s33.3,4,40.7,1.3c7.3-2.7,14-6.7,21.3-8s24.5-6.6,24.5-10.6
	c13.1,8.2,24.1,15.9,28.6,19.4c12,9.3-2.6-38,13.4-40S575.6,104.1,575.6,95.5z"/>
<radialGradient id="SVGID_00000142150673942813604740000007861905345151017631_" cx="-506.658" cy="1936.6674" r="15.147" gradientTransform="matrix(0.5 -0.866 0.6062 0.35 -492.4934 -877.9479)" gradientUnits="userSpaceOnUse">
	<stop  offset="0.371" style="stop-color:#E7C796"/>
	<stop  offset="0.421" style="stop-color:#E9C998"/>
	<stop  offset="0.725" style="stop-color:#F1D1A3"/>
	<stop  offset="1" style="stop-color:#F4D4A7"/>
</radialGradient>
<path style="fill:url(#SVGID_00000142150673942813604740000007861905345151017631_);" d="M417.9,226.6c-4,4-9.3,6-6.7,12
	c2.7,6,8,12.7,14,12s16,1.3,20-9.3c4-10.7-9.3-14.7-14-14.7H417.9z"/>
<linearGradient id="SVGID_00000091711400790732837310000007946679161994595508_" gradientUnits="userSpaceOnUse" x1="359.2289" y1="672.2054" x2="330.5889" y2="786.2654" gradientTransform="matrix(1 0 0 1 0 -482)">
	<stop  offset="0" style="stop-color:#F8D7AC"/>
	<stop  offset="0.389" style="stop-color:#E0C093"/>
	<stop  offset="0.642" style="stop-color:#D0AF82"/>
	<stop  offset="0.885" style="stop-color:#D0AF82;stop-opacity:0.6"/>
</linearGradient>
<path style="fill:url(#SVGID_00000091711400790732837310000007946679161994595508_);" d="M387.9,239.3c0,0-30.1,42.4-61.7,48.3
	c-34.3,6.4-32.3-5.3-34.7-24.4c-2.3-19.1,15.3-55.1,9.4-62c-5.8-6.9,10.5-14.7,17.5-14.7s43.7-3.5,55.4-4.3
	c13.4,2.6,18.1,6.9,33.2,1.7c12.2-14.7,15.2-14.7,15.2-14.7S407.7,222.8,387.9,239.3L387.9,239.3z"/>
<path class="st5" d="M458.3,252.5c1.4,1.5,10.7,9,2.3,16c-8.3,4-8,7.7-6,8.7s9.7,0.3,12.3-6c2.7-6.3,5.3-13.3,2-16.7
	c0,0-1-4.9-5.6-6.2s-7.1-1.4-5.9,2.6C457.8,251.5,457.7,251.7,458.3,252.5L458.3,252.5z"/>
<linearGradient id="SVGID_00000071555838846532179900000017631272361217899676_" gradientUnits="userSpaceOnUse" x1="468.9" y1="654.3496" x2="580.152" y2="654.3496" gradientTransform="matrix(1 0 0 1 0 -482)">
	<stop  offset="0" style="stop-color:#F8D7AC"/>
	<stop  offset="0.466" style="stop-color:#E3C296"/>
	<stop  offset="1" style="stop-color:#D0AF82"/>
</linearGradient>
<path style="fill:url(#SVGID_00000071555838846532179900000017631272361217899676_);" d="M468.9,161.4c0,0,4.3,6.1,4.7,15.4
	c0.3,9.3,16,17.2,20.7,10.8s7.7-12.1,13.1-14.2c6.2-2.4,9.7-3.9,16.1-2.4c7.2,1.6,15.6,5.8,18.5,7.6c4.7,2.9,9.5,6.7,16.7,14.3
	c0,0,5.3,9.6,6.3,12.8s9.3,1.5,11.7-5.8c2.3-7.3,6-13.7,1.3-18.9s-10.8-16.6-19.8-20.4c-9-3.8-19.2-9.5-21.5-11.6s-14.1-6.1-16-8.8
	c-3.8-5.5-30-2.1-38,4.6C474.6,151.5,468.9,161.4,468.9,161.4L468.9,161.4z"/>
<path class="st5" d="M399.6,239.5c0,0-7,3.7-4.7,12.7c2.3,9,2.7,11.6,5.7,13.6s3.3,3.7,5.7,1.3c2.3-2.3,1.7-5,0.3-6.7
	s-5.3-5.7-5-9.3s0.3-4,2-7s1.7-6.3-1-6S399.6,239.5,399.6,239.5L399.6,239.5z"/>
<path class="st18" d="M602.4,354.7c0,0-5.3,8.3-9,14.7c-3.7,6.3-3.7,8-4.7,11c2-0.7,3.7-0.7,3.7-0.7s-0.3,7.7,1.3,11
	c1.7,3.3,15,4.3,15,4.3s2.7-31.7,5.7-33.7s10.7-13.3,10.7-13.3l8-12c0,0,1.3-6.7-2.7-9.7s-6.7,0.3-8.7,3.7c-2,3.3-4.7,4.7-5.7,8
	s2.7,4.7-1.7,11.7c-3.3,2.3-2.3-2-2.7-4c-1-2.7-5.7,4.3-6.7,5.7C604,352.7,602.4,354.7,602.4,354.7L602.4,354.7z"/>
<path class="st19" d="M632.9,294.8c-4.3,0-7.3,1.3-8,2.7s3,7.3,1.7,10s-5.3,10.3-6,13.7s2.3,6.3,2.3,6.3s-0.3,10-2,13.7
	s-3.3,18.7,2.3,11.3s8.3-10,12.7-14.3c4.3-4.3,6.7-10,6.7-12.7s-0.3-7.7-0.3-10s1.7-16,0-17.3C640.6,296.8,637.3,294.8,632.9,294.8
	L632.9,294.8z"/>
<path class="st5" d="M417.6,276.8c0,0-4.7,14.7-2.4,19.2s24.5,8.2,24.5,8.2s4-2.4,2.2-4.2c-1.7-1.8-16.7-6.4-18-10.7
	C422.6,285,417.6,276.8,417.6,276.8L417.6,276.8z"/>
<linearGradient id="SVGID_00000018232079067530234440000002333664166954468278_" gradientUnits="userSpaceOnUse" x1="-1642.4596" y1="710.5132" x2="-1709.6836" y2="714.9904" gradientTransform="matrix(-1 0 0 1 -1117.2103 -482)">
	<stop  offset="0" style="stop-color:#F8D7AC"/>
	<stop  offset="0.605" style="stop-color:#E0C093"/>
	<stop  offset="1" style="stop-color:#D0AF82"/>
</linearGradient>
<path style="fill:url(#SVGID_00000018232079067530234440000002333664166954468278_);" d="M514.8,239.5c0,0,25.4,15.7,50.8,29
	c25.4,13.3,8-11,9.9-23.8s4.7-26.1,9.4-30.8c4.7-4.6-30.8-24.3-36.5-24.3s-12.9,12.1-22.3,11.5c-10.8,1.7-14.6,4.6-26.8,1.2
	c-9.9-9.9-12.2-9.9-12.2-9.9S498.9,228.4,514.8,239.5L514.8,239.5z"/>
<linearGradient id="SVGID_00000183956420411266018730000013023549120863765923_" gradientUnits="userSpaceOnUse" x1="484.4725" y1="760.1387" x2="581.3162" y2="695.1332" gradientTransform="matrix(1 0 0 1 0 -482)">
	<stop  offset="0.296" style="stop-color:#F8D7AC"/>
	<stop  offset="0.747" style="stop-color:#DEBD90"/>
	<stop  offset="1" style="stop-color:#D5B487"/>
</linearGradient>
<path style="fill:url(#SVGID_00000183956420411266018730000013023549120863765923_);" d="M551.1,181.7c52.4,25,31.8,94.9,19,88.1
	s-94-5.9-94-5.9c13.1-4.5,78.3-5.2,81.6-48.6l-4.8-23.8"/>
<linearGradient id="SVGID_00000064332277138225778790000016896727515910649274_" gradientUnits="userSpaceOnUse" x1="226.7756" y1="740.3275" x2="414.3836" y2="724.1815" gradientTransform="matrix(1 0 0 1 0 -482)">
	<stop  offset="0.296" style="stop-color:#D0AF82"/>
	<stop  offset="0.706" style="stop-color:#EFCEA0"/>
	<stop  offset="0.927" style="stop-color:#E7C796"/>
	<stop  offset="1" style="stop-color:#D0AF82"/>
</linearGradient>
<path style="fill:url(#SVGID_00000064332277138225778790000016896727515910649274_);" d="M428.3,141.5c-19.3-9.3-34.7-15.3-47.3-14
	c-12.7,1.3-28,10.7-36.7,19.3s-6.7,18-12,30.7s-12.7,29.3-16,36.7l-8,33.3c-1.3,10-11.6,39.7-11.6,39.7l0.8,82.6l4.2-17.8
	c0,0,2.2-12,14.4-27c4.3-5.6,21.3-24,35.7-37.6c20.9-17.3,36.2-20.8,36.9-22.6c0.7-1.8,0-7.5-0.2-16.7c0,0-0.7-1.9,0-4.6
	c6.9-8,8.6-11.5,11.8-14.2c4.7-4,25.4-23,28.1-30.3S447.6,150.8,428.3,141.5L428.3,141.5z"/>
<path class="st5" d="M428.9,379.1c3.1-3.3-7.3-7-18.3-11.2c-4.7-1.8-19.5,2.9-19.5,2.9s-2.7,3.7-0.4,4.7c2.3,1,6.8-3.6,19.4-1.4
	C420.7,376,428.9,379.1,428.9,379.1z"/>
<linearGradient id="SVGID_00000023972400620610701530000012433309414612225691_" gradientUnits="userSpaceOnUse" x1="417.086" y1="845.9152" x2="432.14" y2="802.7742" gradientTransform="matrix(1 0 0 1 0 -482)">
	<stop  offset="0" style="stop-color:#CCA4A3"/>
	<stop  offset="0.492" style="stop-color:#C1928E"/>
	<stop  offset="0.701" style="stop-color:#C49693"/>
	<stop  offset="0.979" style="stop-color:#CBA3A2"/>
	<stop  offset="1" style="stop-color:#CCA4A3"/>
</linearGradient>
<path style="fill:url(#SVGID_00000023972400620610701530000012433309414612225691_);" d="M361,349.4c0,0,6,2.5,24.5,12.1
	c19.8,1.5,28.3,0.9,32.8,2.8s12.2,5,25.3,5.6s37.5-0.9,44-2.2c6.5-1.2-5.3-9-7.5-11.1c-2.2-2.2-7.8-8.1-9.5-10.7s-9.8-9.1-18.1-17.8
	c-8.3-8.7-8.7-10.6-14.2-11.3s-14.1,1.4-18,1.4c-3.8,0-8.7-4.2-14-5.6s-9.8-0.8-16.6,4.1c-6.8,5-15.9,10-22.9,14.5
	s-17.3,8.7-15.2,12.5C353.8,347.7,361,349.4,361,349.4L361,349.4z"/>
<path class="st24" d="M399.8,329.5c0,0-5.7,4-9.8,4.3c-4.2,0.3-9.5-2.2-16,2s-16,7.2-20.3,7.7c4.8-0.2,6.7,0.5,13.8-2.7
	c7.2-3.2,7.6-2.8,10-3.1c0,0,8.1-0.9,21.1,4.6s19,2.7,38.7,3.2s19.7,10,29,15.7s12.5,5.7,12.5,5.7s-12.8-5.7-21.5-14.7
	s-12.7-9.5-17.8-16s-9.8-4.2-14.5-4s-7,0.2-7,0.2s-5.3-2.5-9.9-3.3C403.2,328.2,399.8,329.5,399.8,329.5L399.8,329.5z"/>
<path class="st25" d="M380.8,337.8c0,0-4.5,5.8-3.8,11c1-1.5,4-9.8,4.8-10.5s1.5-0.2,1.5-0.2s-5,10.5-3.2,10.8
	c2-3.8,4.2-10.5,4.2-10.5h1.5c0,0-4.2,10.5-3.5,10.8s4.8-10.5,4.8-10.5"/>
<path class="st26" d="M425.7,331.8c-4.7,0.2-7.7,0.6-7.7,0.6s-4.6-2.8-9.2-3.7s-8.1,0.4-8.1,0.4s-0.1,0.1-0.4,0.2
	c4.5,0.7,7.9,1.6,13.6,2.8c0.9,0.2,3.4,0.3,4,0.2c0.7,0.8,1.5,0.9,4,0.9c4.5,0.1,10.4,0.3,14-0.2c0.1-0.1-1.6-0.8-2.1-1.1
	C432.2,331.2,428,331.7,425.7,331.8L425.7,331.8z"/>
<linearGradient id="SVGID_00000059992724170694625670000009914572956133696651_" gradientUnits="userSpaceOnUse" x1="271.8999" y1="690.5613" x2="446.6" y2="690.5613" gradientTransform="matrix(1 0 0 1 0 -482)">
	<stop  offset="0" style="stop-color:#5E472B"/>
	<stop  offset="0.184" style="stop-color:#684E31"/>
	<stop  offset="0.407" style="stop-color:#735636"/>
	<stop  offset="0.651" style="stop-color:#8E7050"/>
	<stop  offset="1" style="stop-color:#5E472B"/>
</linearGradient>
<path style="fill:url(#SVGID_00000059992724170694625670000009914572956133696651_);" d="M446.6,39.5c0,0-45.7,9.7-81.3,58.3
	c-4,12-9.3,25.7-16.7,31.3c-8.3,12-6,28.9-18,53c-6,17.4-21.2,52.8-24.2,79.2c-1.5,33.7,0,39.8-3.5,58c-3.7-7.3-7.9-19.8-8.2-37.8
	c-3.3,15.3-3.3,27-7.7,38c-4.3,11-9,21-11.7,29c-1,7.7,5.3,29,5.3,29l-8.7,14.7c0,0,0-77.3,2.7-87.7c2.7-10.3,22-75,22-75
	s0.1-98.8,11.7-123c11.6-24.3,62.3-61.7,62.3-61.7l37.6-17.3c10.5-4.8,22.9-2.8,31.3,5.2L446.6,39.5z"/>
<linearGradient id="SVGID_00000024709026972296285250000007266585129932887424_" gradientUnits="userSpaceOnUse" x1="437.9" y1="742.2665" x2="676.6671" y2="742.2665" gradientTransform="matrix(1 0 0 1 0 -482)">
	<stop  offset="0" style="stop-color:#5E472B"/>
	<stop  offset="0.184" style="stop-color:#684E31"/>
	<stop  offset="0.407" style="stop-color:#735636"/>
	<stop  offset="0.651" style="stop-color:#8E7050"/>
	<stop  offset="1" style="stop-color:#5E472B"/>
</linearGradient>
<path style="fill:url(#SVGID_00000024709026972296285250000007266585129932887424_);" d="M437.9,35.7c0,0,71.4,28.2,98.7,24.9
	c19.3,10,19.7,25,19.7,25l3.9,16.4c0,0,4.6,21,35.9,49.7l18,13.3c0,0,5.3,8.7,17.3,28s-20.7-42-20.7-42s2,89.3,0.7,106
	s0.7,47.3-25.3,84c10,10.7,16,12.7,16,12.7s27.3-33.3,26-61.3c2,0,6.7-8,12.7,0.7c-7.3,10-16.7,42-22,46.7s14.7-21.3,26-37.3
	c1.3,10,4,12.7,0.7,18s-11.6,60.9-29.4,98.2c-3.3,10-20.3-11.8-26.9-7.1s18.3,50.3-11,70.3c-5.3,6.7,8.7,14.7,16.7,26
	c4,9.3,25.3-6,28-12s17.3-75.3,19.3-84.7s33.1-90.7,34.4-131.7c2.4-80.4-60.4-199.7-60.4-199.7L573,38.9
	c-7.8-9.7-18.6-16.6-30.7-19.4l-33.9-7.9C495.7,8.7,482.5,9.1,470,13l-17.5,5.4C444.6,20.8,438.9,27.6,437.9,35.7L437.9,35.7z"/>
<path class="st26" d="M504.3,193.5c0,0-6.3-9.3,5.7-16s28,3,35.7,10.7s5.7,10,1.7,11S534.3,203.1,504.3,193.5L504.3,193.5z
	 M362.9,182.1c-0.8-0.5,0-14.3,13.3-17.3s32.7,9.7,34,16.3s-5.7,2-18.3,2S370.3,186.8,362.9,182.1z"/>
<ellipse class="st29" cx="520.6" cy="185.3" rx="13" ry="8.5"/>
<path class="st29" d="M394.9,172.7c0.1,6.6-8.9,10-15.9,9.1c-5-0.8-11-1.7-11-6.8c1-8.5,15-12.7,22.8-7.7
	C393.1,168.6,394.7,170.5,394.9,172.7z"/>
<path class="st30" d="M524.7,184.1c0,2.2-2.3,3.9-5.2,3.9s-5.2-1.8-5.2-3.9c0-2.2,2.3-3.9,5.2-3.9
	C522.4,180.2,524.7,181.9,524.7,184.1z M386.2,173.2c0,2.2-2.3,3.9-5.2,3.9c-2.9,0-5.2-1.8-5.2-3.9c0-2.2,2.3-3.9,5.2-3.9
	C383.9,169.3,386.2,171.1,386.2,173.2z"/>
<path class="st26" d="M524.8,195.9c0,1.2-1.2,2.1-2.6,2.1c-1.4,0-2.6-0.9-2.6-2.1v-3.2c0-1.2,1.2-2.1,2.6-2.1c1.4,0,2.6,0.9,2.6,2.1
	V195.9z"/>
<circle class="st26" cx="388.8" cy="180.2" r="2.3"/>
<g class="st31">
	<path class="st32" d="M360.5,182.6c0,0-9.2,2.1-11.7,1.7c6-1.3,10.3-3.3,10.3-3.3l0.4-1.5c0,0-4,0.9-10.2-1.5
		c4.3,0.7,10.3,0,10.3,0l1-2.1c0,0-6.5,0.4-10.8-1.6c7,0.8,10.2,0.7,11.2,0.7c0.5-0.2,0.7-0.7,0.7-0.7s-5.3-0.5-9.6-3.9
		c3.8,1.4,8.1,2.3,10,2.2c0.8,0,0.9-0.9,0.9-0.9s-4.8-0.9-10.2-3.7c4,1,10.7,2.3,10.7,2.3l1.9-1.8c0,0-7.7-3.2-9.2-6.2
		c4.3,3.1,4.6,3.3,10.3,4.6c1.5-1.2,2.3-2,2.3-2s-3.4-1.9-7.2-6.2c3.7,1.3,6.2,4.9,9.5,4.9c2.1-0.5,1.8-0.8,1.8-0.8
		s-2.5-1.5-4.8-7.2c2.7,3.7,4.3,5.9,6.3,6.9c2-0.3,3.7-0.6,3.7-0.6s-3.7-2-4.3-8.3c3,6,5,8,5,8l1.7-0.3c0,0-3.7-4.3-3.7-9
		c2.7,6,5.2,8.7,5.2,8.7h1.8c0,0-2.7-5.7-2.7-9c2,4.7,4.7,9,4.7,9l2.8,0.7c0,0-3.8-7.7-2.8-11.7c2.3,7,4.3,11.8,4.3,11.8l3.5,1
		c0,0-1.8-5.5-0.8-10.8c1,4.7,1.4,9.2,2.4,11.6c1.9,0.8,3.3,1.8,3.3,0.3c0,0-1.4-4.9-0.1-9.6c0.7,4.7,0.2,8.6,1.4,10.9
		c1.2,2.3,2.2,1.4,2.2,1.4s-1.3-3.7,0.3-6.3c0,4,1,7.3,1,7.3s1.3,3,0,3s-4-1.6-5-2.6s-13-5.9-18.7-5.1c-6.3,0.9-10.3,2.7-14,7
		S360.5,182.6,360.5,182.6L360.5,182.6z M505.5,178c0.1,0.9,1.9-1.1,3.2-1.9s6.9-2.5,13.6-2.1s13.8,3.9,16.1,5.4s10.5,9,13,14
		c0.9,1.8,1.1,3.7,2.3,1.7c-0.2-1.2-0.8-2.5-0.8-2.5s3.4,0.8,6.5-0.4c-3.2-0.2-6.1,0-6.7-0.7c-0.6-0.8-1.3-2.2-1.3-2.2
		s7.2-2,7.7-4.7c-2.1,1.2-8.4,3.1-8.8,3c-0.4-0.2-3-2.7-3-2.7s3.7-2.1,5.8-4.8c-4.5,2.8-5.9,3.4-7.1,3.4c-1-0.6-1.1-1.3-1.1-1.3
		s4.2-1.2,6.6-4.3c-2.9,1.6-6.3,3.2-7.4,3.1c-1-0.8-1.5-1.3-1.5-1.3s5.9-3.2,5.8-5.7c-1.7,1.7-5.8,4.7-7.3,4.6
		c-1.2-0.6-1.8-1.3-1.8-1.3s5-5.7,5-8.2c-2.7,3.3-6.1,7.6-7,7.3c-0.9-0.2-0.8-0.9-0.9-1.5c-0.1-0.6,4.8-6.7,4.7-8.9
		c-1.4,1.7-5.8,9.3-6.9,9.3c-1.2-0.1-1-0.9-1-0.9s5-5.8,5-7.6c-1.6,1.7-6.1,7.1-6.9,7.1s-1.5-0.4-1.5-0.4s1.5-6.9,3.5-10.2
		c-2.3,1.8-4.5,6.6-5,9.3c0,0-1.4,1.2-2-0.1c0.3-2.1,2.8-7.5,4.6-9.6c-2.5,1.8-5.3,5.6-6.1,9.1c-0.5,0.8-0.8,0.4-0.8,0.4
		s-0.3-5.2,1.4-9.2c-1.2,2-3,5.2-2.6,9.2c-0.6,0.8-1,0.7-1-0.3c-0.1-1-0.1-6.5,0.8-9.2c-1,2.2-2.8,5.6-2.4,9.5
		c-0.3,0.7-1.8,0.9-2,0.1c-0.2-0.8-1.2-6.2-0.6-9.2c-0.8,1.7-2,5-1.3,9.2c-0.4,0.7-1.7,0.7-2,0.2c-0.3-0.4-1.2-5-0.1-10.4
		c-1.2,2.5-1.8,9.4-1.8,10.6c-0.3,0.8-1.3,1.1-1.6,0.9s-1.7-5.1-1.2-8.7c-0.6,2.6-1.3,8.7-1.2,9.3c-0.4,0.3-1.9,1.2-1.9,1.2
		s-3-4.5-4.2-7C502.4,168.6,505.4,177.1,505.5,178L505.5,178z"/>
</g>
<g class="st31">
	<path class="st32" d="M360.5,182.6l-1.3-1.7l0.4-1.5l0.1-1.5l1-2.1l1.1-1.7l1.3-2.6l0.4-1.3l1.9-1.8l3.4-3.7l4.2-2.1l5.2-0.8
		l0.7-0.3l1.7-0.3l1.6-0.3h3.8l2.8,0.7l1.5,0.1l5.9,2l5.8,3.5l4.4,2.7c0,0,2.7,3.3,1.4,3.3s-8.1-4.2-9.1-5.2s-13-5.9-18.7-5.1
		c-6.3,0.9-10.3,2.7-14,7S360.5,182.6,360.5,182.6L360.5,182.6z M505.5,178c0.1,0.9,1.9-1.1,3.2-1.9s6.9-2.5,13.6-2.1
		s13.8,3.9,16.1,5.4s10.5,9,13,14c0.9,1.8,1.1,3.7,2.3,1.7c-0.2-1.2-0.8-2.5-0.8-2.5s0.4-0.3-0.2-1.1c-0.6-0.8-1.3-2.2-1.3-2.2
		s-0.7-1.5-1.1-1.7c-0.4-0.2-3.1-4-4.3-4c-1-0.6-3.5-3.9-3.5-3.9s0-1-1.6-1.2c-1.2-0.6-1.8-1.3-1.8-1.3s-1-0.6-2-0.9
		c-0.9-0.2-1.9-1.1-3.1-1.2c-1.2-0.1-2-1.4-2.8-1.4s-1.5-0.4-1.5-0.4l-5.8-1.1c0,0-2.2,0.6-2.2-0.4c-0.1-1-3.4,1.2-3.6,0.5
		c-0.2-0.8-3.6,0.7-3.9,0.2c-0.3-0.4-3.2,1.2-3.5,1.1s-4.3,1.8-4.3,1.8S505.4,177.1,505.5,178L505.5,178z"/>
</g>
<g>
	<path class="st33" d="M491.1,145.3c0,0,5-13.6,16.5-15c11.5-1.4-0.5,3.6-0.5,3.6s8-3.2,13.5-0.5s-7.5,1.8-7.5,1.8s20.5,0,43.5,13.2
		s32.5,28.2,33.5,32.2c1,4.1-6,5-8.5,2.3s-19-23.2-47-30s-35-2.7-38.5-3.6S491.1,145.3,491.1,145.3z M425.1,136.9
		c0,0,1.5-8.5-4.5-13.2s-2.5,2.1-2.5,2.1s-6-3.8-9-5.1s-2,3.4-1,3.8s-16-3-27.5-0.4c-11.5,2.5-32.5,12.7-34.5,15.7s-9,12.3-10,13.6
		s0,5.1,4.5,3s14.5-13.6,14.5-13.6s13.5-5.9,23.5-6.4c10-0.4,21-1.3,28-0.4S419.1,139.4,425.1,136.9L425.1,136.9z"/>
</g>
<path class="st30" d="M624.5,229.3l-3.2-34.4c-0.5-7.8-4.2-14.9-6.5-14.9s-8.5-1.5-12.4-3c-1.9-2.5-5.9-8.9-15.8-13.6
	c-33.5-12.2-59.6-14.4-78.9-15.5c-19.3-1.1-25.9,2.5-31.2,4.8s-11,1.6-12.6,1.2s-10.4-3.2-20.4-2.2s-8.2-0.2-10.5-2.5s-9-7-9-7
	c-14.7-5.7-20-9-63.3-11c-44,0.3-37.3,4.7-44.7,8.7c-4,3.2-9,2.4-13.7,2.5s-5.9,1.6-6.1,4s0.8,6.4,1.8,15.4s13.8,69.9,13.8,69.9
	l2.1-9.1l-5.5-31.6c7.5,9.9,30.7,8.9,50.7,9.2c20.5,0.2,47.4,5.8,57.2-7.4c14.9-16.1,10.8-19.1,22.6-30.9
	c16.5-8.6,26.9,4.9,26.9,4.9c2.5,18,3,21.9,8.2,33c10,18.2,60.4,21.8,88.4,26.1s29.1-3.1,29.1-3.1c7.8-10.2,9.5-30.9,9.5-30.9
	s5.6,0.5,7.4,2.2s5.8,4.8,7.1,14.8s1.9,15.6,1.9,15.6l9,72.6c0,0,3.9-2.1,4-2.6S624.5,229.3,624.5,229.3z M303.6,164.3
	c0,0-2-6.9-1-9.1s4-3.2,5.5-2.1s-1.2,5-3.8,14.4c0,0.2-0.1,0.4-0.1,0.6L303.6,164.3L303.6,164.3z M422.6,175.3
	c-10.8,18.5-17,18.8-23.8,20.8s-45.8-1.2-62.8-1c-16.5,0.2-24.2-4-28-14s11-38,11-38c5.8-6.2,4-6.8,38.5-7.5s59,8.8,65.2,12.5
	S433.4,156.8,422.6,175.3z M596.1,196.3c-5,26.5-7,25.8-22.5,25.5s-42.5-5.5-57.2-8s-25-3.8-33.5-11.2s-8.5-20.5-9-34.5
	s12.5-14.2,12.5-14.2s11.8-1.5,23.2-1.2c31.8,2.2,45.8,6.5,60.5,10.2S601.1,169.8,596.1,196.3z"/>
</svg>
