<?xml version="1.0" encoding="utf-8"?>
<!-- Generator: Adobe Illustrator 16.0.0, SVG Export Plug-In . SVG Version: 6.00 Build 0)  -->
<!DOCTYPE svg PUBLIC "-//W3C//DTD SVG 1.1//EN" "http://www.w3.org/Graphics/SVG/1.1/DTD/svg11.dtd">
<svg version="1.1" id="Layer_1" xmlns="http://www.w3.org/2000/svg" xmlns:xlink="http://www.w3.org/1999/xlink" x="0px" y="0px"
	 width="40px" height="40px" viewBox="0 0 40 40" enable-background="new 0 0 40 40" xml:space="preserve">
<g>
	<path fill-rule="evenodd" clip-rule="evenodd" fill="#494949" d="M38.146,30.773c-0.025,0.066-0.055,0.129-0.075,0.191
		c-0.31,1.015-1.16,1.65-2.216,1.65c-10.583,0-21.162,0.005-31.741,0.005c-0.959,0-1.789-0.587-2.123-1.487
		c-0.046-0.117-0.092-0.238-0.139-0.359c0-0.281,0-0.566,0-0.851c0.176-0.516,0.398-1.006,0.851-1.353
		c0.427-0.322,0.9-0.49,1.444-0.49c8.891,0.005,17.783,0.005,26.674,0.005c1.646,0,3.283-0.005,4.925-0.005
		c1.218,0.005,1.98,0.577,2.345,1.755c0.009,0.033,0.038,0.058,0.055,0.088C38.146,30.207,38.146,30.492,38.146,30.773z"/>
	<path fill-rule="evenodd" clip-rule="evenodd" fill="#494949" d="M38.146,19.432c-0.025,0.063-0.055,0.126-0.075,0.192
		c-0.31,1.01-1.16,1.65-2.216,1.65c-10.583,0-21.162,0-31.741,0c-0.959,0-1.789-0.583-2.123-1.482
		c-0.046-0.121-0.092-0.239-0.139-0.36c0-0.285,0-0.565,0-0.851c0.076-0.197,0.139-0.402,0.235-0.586
		c0.431-0.805,1.101-1.252,2.023-1.252c7.002-0.005,14.004-0.005,21.011-0.005c3.4,0,6.801,0.038,10.202-0.016
		c1.478-0.021,2.403,0.493,2.822,1.858C38.146,18.866,38.146,19.146,38.146,19.432z"/>
	<path fill-rule="evenodd" clip-rule="evenodd" fill="#494949" d="M1.853,7.24c0.076-0.197,0.139-0.402,0.235-0.586
		C2.519,5.85,3.189,5.402,4.111,5.402c7.002-0.004,14.004-0.004,21.011-0.004c3.4,0,6.801,0.038,10.202-0.017
		c1.478-0.021,2.403,0.494,2.822,1.859c0,0.281,0,0.565,0,0.85c-0.038,0.097-0.075,0.193-0.109,0.293
		c-0.322,0.938-1.159,1.545-2.147,1.545C25.298,9.933,14.707,9.933,4.115,9.933c-0.959,0-1.789-0.586-2.123-1.486
		C1.946,8.329,1.899,8.208,1.853,8.09C1.853,7.806,1.853,7.521,1.853,7.24z"/>
</g>
</svg>
