<?xml version="1.0" encoding="utf-8"?>
<!-- Generator: Adobe Illustrator 16.0.0, SVG Export Plug-In . SVG Version: 6.00 Build 0)  -->
<!DOCTYPE svg PUBLIC "-//W3C//DTD SVG 1.1//EN" "http://www.w3.org/Graphics/SVG/1.1/DTD/svg11.dtd">
<svg version="1.1" id="Layer_1" xmlns="http://www.w3.org/2000/svg" xmlns:xlink="http://www.w3.org/1999/xlink" x="0px" y="0px"
	 width="40px" height="40px" viewBox="0 0 40 40" enable-background="new 0 0 40 40" xml:space="preserve">
<path fill="#494949" d="M2.593,6.338C2.8,6.197,3,6.04,3.217,5.925C4.181,5.433,5.136,5.448,6.036,6.07
	c6.831,4.721,13.658,9.448,20.491,14.178c3.315,2.294,6.605,4.628,9.96,6.87c1.457,0.978,2.012,2.103,1.499,3.717
	c-0.19,0.273-0.383,0.551-0.574,0.829c-0.105,0.068-0.206,0.138-0.306,0.212c-0.946,0.697-2.172,0.725-3.137,0.058
	C23.638,24.79,13.31,17.641,2.981,10.49C2.045,9.844,1.632,8.711,1.914,7.608c0.034-0.147,0.07-0.296,0.106-0.441
	C2.211,6.89,2.403,6.611,2.593,6.338z"/>
<path fill="#494949" d="M37.979,7.167c0.037,0.145,0.073,0.294,0.107,0.441c0.281,1.103-0.133,2.235-1.068,2.882
	c-10.328,7.15-20.656,14.3-30.987,21.443c-0.965,0.667-2.19,0.64-3.137-0.058c-0.1-0.074-0.2-0.144-0.306-0.212
	c-0.191-0.278-0.384-0.556-0.574-0.829c-0.513-1.614,0.042-2.739,1.499-3.717c3.354-2.242,6.645-4.576,9.96-6.87
	c6.833-4.729,13.66-9.457,20.49-14.178c0.9-0.623,1.855-0.638,2.818-0.146C37,6.04,37.199,6.197,37.406,6.338
	C37.596,6.611,37.788,6.89,37.979,7.167z"/>
</svg>
